<svg aria-hidden="true" style="width:0;height:0;position:absolute;overflow:hidden" xmlns="http://www.w3.org/2000/svg"><defs><symbol id="icon-Logo" viewBox="0 0 32 32"><path d="M27.52 5.117v23.037l-7.68-.003v3.843l7.68.003c2.424 0 3.84-1.416 3.84-3.84V5.12c0-2.424-1.416-3.843-3.84-3.843l-7.68-.003v3.84l7.68.003zM4.48 28.157V5.117l7.68-.003v-3.84l-7.68.003C2.056 1.277.64 2.696.64 5.12v23.04c0 2.424 1.416 3.837 3.84 3.837l7.68-.003v-3.84l-7.68.003z"/><path d="M10.88 11.52h10.24v10.24H10.88V11.52z"/></symbol><symbol id="icon-YouTube" viewBox="0 0 32 32"><path d="M28.724 8.664c.609 2.376.609 7.336.609 7.336s0 4.96-.609 7.336c-.339 1.313-1.329 2.347-2.584 2.696-2.279.635-10.14.635-10.14.635s-7.857 0-10.14-.635c-1.26-.355-2.249-1.387-2.584-2.696C2.667 20.96 2.667 16 2.667 16s0-4.96.609-7.336c.339-1.313 1.329-2.347 2.584-2.696C8.143 5.333 16 5.333 16 5.333s7.861 0 10.14.635c1.26.355 2.249 1.387 2.584 2.696zM13.333 20.667l8-4.667-8-4.667v9.333z"/></symbol><symbol id="icon-Instagram" viewBox="0 0 32 32"><path d="M16 2.667c3.623 0 4.075.013 5.496.08 1.42.067 2.387.289 3.237.62a6.51 6.51 0 0 1 2.363 1.537 6.538 6.538 0 0 1 1.537 2.363c.329.849.553 1.817.62 3.237.063 1.421.08 1.873.08 5.496s-.013 4.075-.08 5.496c-.067 1.42-.291 2.387-.62 3.237a6.53 6.53 0 0 1-1.537 2.363 6.55 6.55 0 0 1-2.363 1.537c-.849.329-1.817.553-3.237.62-1.421.063-1.873.08-5.496.08s-4.075-.013-5.496-.08c-1.42-.067-2.387-.291-3.237-.62a6.53 6.53 0 0 1-2.363-1.537 6.53 6.53 0 0 1-1.537-2.363c-.331-.849-.553-1.817-.62-3.237-.063-1.421-.08-1.873-.08-5.496s.013-4.075.08-5.496c.067-1.421.289-2.387.62-3.237a6.516 6.516 0 0 1 1.537-2.363 6.53 6.53 0 0 1 2.363-1.537c.851-.331 1.816-.553 3.237-.62 1.421-.063 1.873-.08 5.496-.08zm0 6.666a6.67 6.67 0 0 0-4.714 11.381 6.67 6.67 0 0 0 9.428 0A6.668 6.668 0 0 0 16 9.333zM24.667 9a1.667 1.667 0 1 0-3.334 0 1.667 1.667 0 0 0 3.334 0zM16 12a4.003 4.003 0 0 1 4 4 4.003 4.003 0 0 1-4 4 4.003 4.003 0 0 1-4-4 4.003 4.003 0 0 1 4-4z"/></symbol><symbol id="icon-Rent" viewBox="0 0 32 32"><path d="M16 29.333C8.636 29.333 2.667 23.364 2.667 16S8.636 2.667 16 2.667 29.333 8.636 29.333 16 23.364 29.333 16 29.333zm0-2.666a10.664 10.664 0 0 0 7.543-18.209 10.669 10.669 0 0 0-15.085 0A10.666 10.666 0 0 0 16 26.667zM9.333 12l4-4.667 4 4.667h-2.667v5.333h-2.667V12H9.332zm13.334 8-4 4.667-4-4.667h2.667v-5.333h2.667V20h2.667z"/></symbol><symbol id="icon-Guarantee" viewBox="0 0 32 32"><path d="M22.667 20.327v9.163a.662.662 0 0 1-.338.58.675.675 0 0 1-.672-.008L16 26.667l-5.657 3.395a.67.67 0 0 1-.672.008.66.66 0 0 1-.337-.581v-9.16a10.672 10.672 0 0 1 .498-17.03A10.665 10.665 0 0 1 26.253 14.94a10.67 10.67 0 0 1-3.587 5.389v-.001zM12 21.891v4.067l4-2.4 4 2.4v-4.067a10.647 10.647 0 0 1-4 .776 10.647 10.647 0 0 1-4-.776zM16 20a8 8 0 1 0 0-16 8 8 0 0 0 0 16z"/></symbol><symbol id="icon-Settings" viewBox="0 0 32 32"><path d="m16 1.333 12.667 7.333v14.667L16 30.666 3.333 23.333V8.666L16 1.333zm0 3.082L6 10.204v11.592l10 5.789 10-5.789V10.204L16 4.415zm0 16.918a5.332 5.332 0 1 1 0-10.665 5.332 5.332 0 0 1 0 10.665zm0-2.666A2.67 2.67 0 0 0 18.667 16 2.67 2.67 0 0 0 16 13.333 2.67 2.67 0 0 0 13.333 16 2.67 2.67 0 0 0 16 18.667z"/></symbol><symbol id="icon-Case" viewBox="0 0 32 32"><path d="M9.333 6.667v-4a1.335 1.335 0 0 1 1.334-1.334h10.667a1.335 1.335 0 0 1 1.334 1.334v4h5.333a1.335 1.335 0 0 1 1.334 1.334v18.667a1.334 1.334 0 0 1-1.334 1.334h-24a1.334 1.334 0 0 1-1.334-1.334V8.001a1.335 1.335 0 0 1 1.334-1.334h5.333zm-4 14.666v4h21.333v-4H5.333zm0-2.666h21.333V9.334H5.333v9.333zM12 4v2.667h8V4h-8zm2.667 10.667h2.667v2.667h-2.667v-2.667z"/></symbol><symbol id="icon-Service" viewBox="0 0 32 32"><path d="M26.584 10.667H28a2.67 2.67 0 0 1 2.667 2.667v5.333A2.668 2.668 0 0 1 28 21.334h-1.416A10.672 10.672 0 0 1 16 30.668v-2.667a8 8 0 0 0 8-8v-8a8 8 0 1 0-16 0v9.333H4a2.668 2.668 0 0 1-2.667-2.667v-5.333A2.668 2.668 0 0 1 4 10.667h1.416a10.666 10.666 0 0 1 17.639-6.666 10.673 10.673 0 0 1 3.529 6.666zM4 13.333v5.333h1.333v-5.333H4zm22.667 0v5.333H28v-5.333h-1.333zm-16.32 7.714 1.413-2.261A7.969 7.969 0 0 0 16 20.001a7.969 7.969 0 0 0 4.24-1.215l1.413 2.261A10.613 10.613 0 0 1 16 22.667a10.613 10.613 0 0 1-5.653-1.62z"/></symbol><symbol id="icon-Delivery" viewBox="0 0 32 32"><path d="M11.953 24a4.672 4.672 0 0 1-4.62 4.009A4.663 4.663 0 0 1 2.713 24h-1.38V8a1.335 1.335 0 0 1 1.334-1.334h18.667A1.335 1.335 0 0 1 22.668 8v2.667h4l4 5.408V24h-2.713a4.672 4.672 0 0 1-4.62 4.009A4.665 4.665 0 0 1 18.715 24h-6.76zM20 9.333H4v10.733a4.669 4.669 0 0 1 7.551 1.266h7.565c.224-.471.524-.899.884-1.267V9.332zm2.667 8H28v-.38l-2.677-3.62h-2.656v4zm.666 8a2.003 2.003 0 0 0 2.001-2.001 2.003 2.003 0 0 0-2.001-2.001 2.003 2.003 0 0 0-2.001 2.001 2.003 2.003 0 0 0 2.001 2.001zm-14-2a2.004 2.004 0 0 0-.586-1.414 1.986 1.986 0 0 0-1.414-.585 2.004 2.004 0 0 0-1.848 1.234 2 2 0 1 0 3.848.765z"/></symbol><symbol id="icon-Sale" viewBox="0 0 32 32"><path d="M23.333 28a4.667 4.667 0 1 1 0-9.334 4.667 4.667 0 0 1 0 9.334zm0-2.667a2 2 0 1 0-.001-4.001 2 2 0 0 0 .001 4.001zm-14.666-12a4.676 4.676 0 0 1-3.3-1.367A4.68 4.68 0 0 1 4 8.666a4.676 4.676 0 0 1 1.367-3.3 4.68 4.68 0 0 1 3.3-1.367 4.667 4.667 0 0 1 0 9.334zm0-2.666a2 2 0 1 0-.001-4.001 2 2 0 0 0 .001 4.001zm16.761-5.98 1.885 1.885-20.74 20.741-1.885-1.885 20.74-20.741z"/></symbol><symbol id="icon-All" viewBox="0 0 32 32"><path stroke-width="2.667" d="M5.333 5.333h8v8h-8v-8zm0 13.334h8v8h-8v-8zM18.667 5.333h8v8h-8v-8zm0 13.334h8v8h-8v-8z"/></symbol><symbol id="icon-Arrow-Up" viewBox="0 0 32 32"><path d="m16 14.437-6.6 6.6-1.885-1.885L16 10.667l8.485 8.485-1.885 1.885-6.6-6.6z"/></symbol><symbol id="icon-Arrow-Right" viewBox="0 0 32 32"><path d="m14.437 16 6.6 6.6-1.885 1.885L10.667 16l8.485-8.485L21.037 9.4l-6.6 6.6z"/></symbol><symbol id="icon-Arrow-Left" viewBox="0 0 32 32"><path d="m17.563 16-6.6-6.6 1.885-1.885L21.333 16l-8.485 8.485-1.885-1.885 6.6-6.6z"/></symbol><symbol id="icon-Arrow-Down" viewBox="0 0 32 32"><path d="m16 17.563 6.6-6.6 1.885 1.885L16 21.333l-8.485-8.485L9.4 10.963l6.6 6.6z"/></symbol><symbol id="icon-Filter" viewBox="0 0 32 32"><path d="M28 5.333V8h-1.333L20 18v11.333h-8V18L5.333 8H4V5.333h24zM8.539 8l6.128 9.192v9.475h2.667v-9.475L23.462 8H8.539z"/></symbol><symbol id="icon-Close" viewBox="0 0 32 32"><path d="m16 14.115 6.6-6.6L24.485 9.4l-6.6 6.6 6.6 6.6-1.885 1.885-6.6-6.6-6.6 6.6L7.515 22.6l6.6-6.6-6.6-6.6L9.4 7.515l6.6 6.6z"/></symbol><symbol id="icon-Burger" viewBox="0 0 32 32"><path d="M4 5.333h24V8H4V5.333zm0 9.334h24v2.667H4v-2.667zM4 24h24v2.667H4V24z"/></symbol><symbol id="icon-Search" viewBox="0 0 32 32"><path d="m24.041 22.156 5.711 5.709-1.887 1.887-5.709-5.711a11.945 11.945 0 0 1-7.489 2.625c-6.624 0-12-5.376-12-12s5.376-12 12-12 12 5.376 12 12a11.943 11.943 0 0 1-2.625 7.489zm-2.674-.989a9.302 9.302 0 0 0 2.633-6.5 9.33 9.33 0 0 0-9.333-9.333 9.33 9.33 0 0 0-9.333 9.333A9.33 9.33 0 0 0 14.667 24a9.302 9.302 0 0 0 6.5-2.633l.2-.2z"/></symbol><symbol id="icon-Cart" viewBox="0 0 32 32"><path d="M5.333 8.552 1.009 4.229l1.887-1.887 4.323 4.324h20.323a1.34 1.34 0 0 1 1.07.537c.124.167.207.36.244.565s.024.415-.036.614l-3.2 10.667a1.33 1.33 0 0 1-1.277.951H8.002v2.667h14.667v2.667h-16A1.335 1.335 0 0 1 5.335 24V8.552zM8 9.333v8h15.349l2.4-8H8zm-.667 21.334a2 2 0 1 1 .001-4.001 2 2 0 0 1-.001 4.001zm16 0a2 2 0 1 1 .001-4.001 2 2 0 0 1-.001 4.001z"/></symbol><symbol id="person-black" viewBox="0 0 32 32"><path d="M16 16c2.947 0 5.333-2.387 5.333-5.333S18.946 5.334 16 5.334c-2.947 0-5.333 2.387-5.333 5.333S13.054 16 16 16zm0 2.667c-3.56 0-10.667 1.787-10.667 5.333v1.333c0 .733.6 1.333 1.333 1.333h18.667c.733 0 1.333-.6 1.333-1.333V24c0-3.547-7.107-5.333-10.667-5.333z"/></symbol><symbol id="phone-black" viewBox="0 0 32 32"><path d="m24.882 19.773-3.268-.373a2.561 2.561 0 0 0-2.11.733L17.137 22.5a19.357 19.357 0 0 1-8.478-8.478l2.38-2.38a2.561 2.561 0 0 0 .733-2.11l-.373-3.242a2.575 2.575 0 0 0-2.56-2.277H6.613c-1.454 0-2.663 1.209-2.573 2.663.682 10.987 9.469 19.761 20.443 20.443 1.454.09 2.663-1.119 2.663-2.573V22.32a2.549 2.549 0 0 0-2.264-2.547z"/></symbol><symbol id="email-black" viewBox="0 0 32 32"><path d="M26.667 5.333H5.334A2.663 2.663 0 0 0 2.681 8l-.013 16c0 1.467 1.2 2.667 2.667 2.667h21.333c1.467 0 2.667-1.2 2.667-2.667V8c0-1.467-1.2-2.667-2.667-2.667zM26.133 11l-9.427 5.893a1.346 1.346 0 0 1-1.413 0L5.866 11a1.132 1.132 0 1 1 1.2-1.92l8.933 5.587 8.933-5.587a1.132 1.132 0 1 1 1.2 1.92z"/></symbol><symbol id="facebook" viewBox="0 0 32 32"><path d="M21.329 5.313h2.921V.225C23.746.156 22.013 0 19.994 0c-4.212 0-7.097 2.649-7.097 7.519V12H8.249v5.688h4.648V32h5.699V17.689h4.46l.708-5.688h-5.169V8.082c.001-1.644.444-2.769 2.735-2.769z"/></symbol><symbol id="linkedin" viewBox="0 0 32 32"><path d="M31.992 32v-.001H32V20.263c0-5.741-1.236-10.164-7.948-10.164-3.227 0-5.392 1.771-6.276 3.449h-.093v-2.913h-6.364v21.364h6.627V21.42c0-2.785.528-5.479 3.977-5.479 3.399 0 3.449 3.179 3.449 5.657v10.401h6.62zM.528 10.636h6.635V32H.528V10.636zM3.843 0C1.722 0 0 1.721 0 3.843s1.721 3.879 3.843 3.879c2.121 0 3.843-1.757 3.843-3.879A3.846 3.846 0 0 0 3.843 0z"/></symbol></defs></svg>