<svg aria-hidden="true" style="position: absolute; width: 0; height: 0; overflow: hidden;" version="1.1" xmlns="http://www.w3.org/2000/svg" xmlns:xlink="http://www.w3.org/1999/xlink">
<defs>
<symbol id="icon-Logo" viewBox="0 0 32 32">
<path d="M27.52 5.117v23.037l-7.68-0.003v3.843l7.68 0.003c2.424 0 3.84-1.416 3.84-3.84v-23.037c0-2.424-1.416-3.843-3.84-3.843l-7.68-0.003v3.84l7.68 0.003z"></path>
<path d="M4.48 28.157v-23.040l7.68-0.003v-3.84l-7.68 0.003c-2.424 0-3.84 1.419-3.84 3.843v23.040c0 2.424 1.416 3.837 3.84 3.837l7.68-0.003v-3.84l-7.68 0.003z"></path>
<path d="M10.88 11.52h10.24v10.24h-10.24v-10.24z"></path>
</symbol>
<symbol id="icon-YouTube" viewBox="0 0 32 32">
<path d="M28.724 8.664c0.609 2.376 0.609 7.336 0.609 7.336s0 4.96-0.609 7.336c-0.339 1.313-1.329 2.347-2.584 2.696-2.279 0.635-10.14 0.635-10.14 0.635s-7.857 0-10.14-0.635c-1.26-0.355-2.249-1.387-2.584-2.696-0.609-2.376-0.609-7.336-0.609-7.336s0-4.96 0.609-7.336c0.339-1.313 1.329-2.347 2.584-2.696 2.283-0.635 10.14-0.635 10.14-0.635s7.861 0 10.14 0.635c1.26 0.355 2.249 1.387 2.584 2.696zM13.333 20.667l8-4.667-8-4.667v9.333z"></path>
</symbol>
<symbol id="icon-Instagram" viewBox="0 0 32 32">
<path d="M16 2.667c3.623 0 4.075 0.013 5.496 0.080 1.42 0.067 2.387 0.289 3.237 0.62 0.88 0.339 1.621 0.797 2.363 1.537 0.678 0.667 1.203 1.473 1.537 2.363 0.329 0.849 0.553 1.817 0.62 3.237 0.063 1.421 0.080 1.873 0.080 5.496s-0.013 4.075-0.080 5.496c-0.067 1.42-0.291 2.387-0.62 3.237-0.334 0.89-0.859 1.697-1.537 2.363-0.667 0.678-1.473 1.202-2.363 1.537-0.849 0.329-1.817 0.553-3.237 0.62-1.421 0.063-1.873 0.080-5.496 0.080s-4.075-0.013-5.496-0.080c-1.42-0.067-2.387-0.291-3.237-0.62-0.89-0.334-1.697-0.859-2.363-1.537-0.678-0.666-1.203-1.473-1.537-2.363-0.331-0.849-0.553-1.817-0.62-3.237-0.063-1.421-0.080-1.873-0.080-5.496s0.013-4.075 0.080-5.496c0.067-1.421 0.289-2.387 0.62-3.237 0.334-0.89 0.858-1.697 1.537-2.363 0.666-0.678 1.473-1.203 2.363-1.537 0.851-0.331 1.816-0.553 3.237-0.62 1.421-0.063 1.873-0.080 5.496-0.080zM16 9.333c-1.768 0-3.464 0.702-4.714 1.953s-1.953 2.946-1.953 4.714c0 1.768 0.702 3.464 1.953 4.714s2.946 1.953 4.714 1.953 3.464-0.702 4.714-1.953c1.25-1.25 1.953-2.946 1.953-4.714s-0.702-3.464-1.953-4.714c-1.25-1.25-2.946-1.953-4.714-1.953zM24.667 9c0-0.442-0.176-0.866-0.488-1.178s-0.737-0.488-1.179-0.488c-0.442 0-0.866 0.176-1.179 0.488s-0.488 0.736-0.488 1.178c0 0.442 0.176 0.866 0.488 1.178s0.737 0.488 1.179 0.488c0.442 0 0.866-0.176 1.179-0.488s0.488-0.736 0.488-1.178zM16 12c1.061 0 2.078 0.421 2.828 1.172s1.172 1.768 1.172 2.828c0 1.061-0.421 2.078-1.172 2.828s-1.768 1.172-2.828 1.172c-1.061 0-2.078-0.421-2.828-1.172s-1.172-1.768-1.172-2.828c0-1.061 0.421-2.078 1.172-2.828s1.768-1.172 2.828-1.172z"></path>
</symbol>
<symbol id="icon-Rent" viewBox="0 0 32 32">
<path d="M16 29.333c-7.364 0-13.333-5.969-13.333-13.333s5.969-13.333 13.333-13.333c7.364 0 13.333 5.969 13.333 13.333s-5.969 13.333-13.333 13.333zM16 26.667c2.829 0 5.542-1.124 7.543-3.124s3.124-4.714 3.124-7.543c0-2.829-1.124-5.542-3.124-7.542s-4.714-3.124-7.543-3.124c-2.829 0-5.542 1.124-7.542 3.124s-3.124 4.713-3.124 7.542c0 2.829 1.124 5.542 3.124 7.543s4.713 3.124 7.542 3.124zM9.333 12l4-4.667 4 4.667h-2.667v5.333h-2.667v-5.333h-2.667zM22.667 20l-4 4.667-4-4.667h2.667v-5.333h2.667v5.333h2.667z"></path>
</symbol>
<symbol id="icon-Guarantee" viewBox="0 0 32 32">
<path d="M22.667 20.327v9.163c0 0.118-0.031 0.234-0.091 0.336s-0.145 0.186-0.247 0.244c-0.103 0.058-0.219 0.088-0.337 0.087s-0.233-0.034-0.335-0.095l-5.657-3.395-5.657 3.395c-0.101 0.061-0.217 0.093-0.335 0.095s-0.234-0.029-0.337-0.087c-0.103-0.058-0.188-0.143-0.247-0.245s-0.090-0.218-0.090-0.336v-9.16c-1.725-1.381-2.979-3.264-3.587-5.389s-0.543-4.386 0.189-6.471 2.093-3.892 3.896-5.17c1.803-1.278 3.958-1.964 6.168-1.964s4.365 0.686 6.168 1.964c1.803 1.278 3.165 3.084 3.896 5.17s0.798 4.346 0.189 6.471c-0.609 2.125-1.862 4.007-3.587 5.389v-0.001zM12 21.891v4.067l4-2.4 4 2.4v-4.067c-1.271 0.514-2.629 0.777-4 0.776-1.371 0.001-2.729-0.262-4-0.776zM16 20c2.122 0 4.157-0.843 5.657-2.343s2.343-3.535 2.343-5.657c0-2.122-0.843-4.157-2.343-5.657s-3.535-2.343-5.657-2.343-4.157 0.843-5.657 2.343c-1.5 1.5-2.343 3.535-2.343 5.657s0.843 4.157 2.343 5.657 3.535 2.343 5.657 2.343z"></path>
</symbol>
<symbol id="icon-Settings" viewBox="0 0 32 32">
<path d="M16 1.333l12.667 7.333v14.667l-12.667 7.333-12.667-7.333v-14.667l12.667-7.333zM16 4.415l-10 5.789v11.592l10 5.789 10-5.789v-11.592l-10-5.789zM16 21.333c-1.415 0-2.771-0.562-3.771-1.562s-1.562-2.357-1.562-3.771 0.562-2.771 1.562-3.771c1-1 2.357-1.562 3.771-1.562s2.771 0.562 3.771 1.562c1 1 1.562 2.357 1.562 3.771s-0.562 2.771-1.562 3.771c-1 1-2.357 1.562-3.771 1.562zM16 18.667c0.707 0 1.385-0.281 1.886-0.781s0.781-1.178 0.781-1.886c0-0.707-0.281-1.385-0.781-1.886s-1.178-0.781-1.886-0.781c-0.707 0-1.385 0.281-1.886 0.781s-0.781 1.178-0.781 1.886c0 0.707 0.281 1.385 0.781 1.886s1.178 0.781 1.886 0.781z"></path>
</symbol>
<symbol id="icon-Case" viewBox="0 0 32 32">
<path d="M9.333 6.667v-4c0-0.354 0.14-0.693 0.391-0.943s0.589-0.391 0.943-0.391h10.667c0.354 0 0.693 0.14 0.943 0.391s0.391 0.589 0.391 0.943v4h5.333c0.354 0 0.693 0.14 0.943 0.391s0.391 0.589 0.391 0.943v18.667c0 0.354-0.141 0.693-0.391 0.943s-0.589 0.391-0.943 0.391h-24c-0.354 0-0.693-0.141-0.943-0.391s-0.391-0.589-0.391-0.943v-18.667c0-0.354 0.14-0.693 0.391-0.943s0.589-0.391 0.943-0.391h5.333zM5.333 21.333v4h21.333v-4h-21.333zM5.333 18.667h21.333v-9.333h-21.333v9.333zM12 4v2.667h8v-2.667h-8zM14.667 14.667h2.667v2.667h-2.667v-2.667z"></path>
</symbol>
<symbol id="icon-Service" viewBox="0 0 32 32">
<path d="M26.584 10.667h1.416c0.707 0 1.385 0.281 1.886 0.781s0.781 1.178 0.781 1.886v5.333c0 0.707-0.281 1.386-0.781 1.886s-1.178 0.781-1.886 0.781h-1.416c-0.325 2.578-1.58 4.948-3.528 6.667s-4.457 2.667-7.056 2.667v-2.667c2.122 0 4.157-0.843 5.657-2.343s2.343-3.535 2.343-5.657v-8c0-2.122-0.843-4.157-2.343-5.657s-3.535-2.343-5.657-2.343-4.157 0.843-5.657 2.343c-1.5 1.5-2.343 3.535-2.343 5.657v9.333h-4c-0.707 0-1.386-0.281-1.886-0.781s-0.781-1.178-0.781-1.886v-5.333c0-0.707 0.281-1.386 0.781-1.886s1.178-0.781 1.886-0.781h1.416c0.325-2.577 1.58-4.948 3.529-6.666s4.457-2.666 7.055-2.666c2.598 0 5.107 0.948 7.055 2.666s3.203 4.088 3.529 6.666zM4 13.333v5.333h1.333v-5.333h-1.333zM26.667 13.333v5.333h1.333v-5.333h-1.333zM10.347 21.047l1.413-2.261c1.271 0.796 2.741 1.217 4.24 1.215 1.499 0.002 2.969-0.419 4.24-1.215l1.413 2.261c-1.694 1.062-3.654 1.623-5.653 1.62-1.999 0.003-3.959-0.558-5.653-1.62z"></path>
</symbol>
<symbol id="icon-Delivery" viewBox="0 0 32 32">
<path d="M11.953 24c-0.159 1.112-0.713 2.13-1.562 2.867s-1.935 1.142-3.058 1.142-2.21-0.405-3.058-1.142c-0.849-0.736-1.403-1.754-1.562-2.867h-1.38v-16c0-0.354 0.14-0.693 0.391-0.943s0.589-0.391 0.943-0.391h18.667c0.354 0 0.693 0.14 0.943 0.391s0.391 0.589 0.391 0.943v2.667h4l4 5.408v7.925h-2.713c-0.159 1.112-0.713 2.13-1.562 2.867s-1.935 1.142-3.058 1.142-2.209-0.405-3.058-1.142c-0.849-0.736-1.403-1.754-1.562-2.867h-6.76zM20 9.333h-16v10.733c0.526-0.537 1.174-0.939 1.889-1.172s1.475-0.289 2.217-0.165 1.442 0.426 2.042 0.879c0.6 0.453 1.081 1.045 1.403 1.724h7.565c0.224-0.471 0.524-0.899 0.884-1.267v-10.733zM22.667 17.333h5.333v-0.38l-2.677-3.62h-2.656v4zM23.333 25.333c0.531 0 1.039-0.211 1.415-0.586s0.586-0.884 0.586-1.415c0-0.531-0.211-1.039-0.586-1.415s-0.884-0.586-1.415-0.586c-0.531 0-1.039 0.211-1.415 0.586s-0.586 0.884-0.586 1.415c0 0.531 0.211 1.039 0.586 1.415s0.884 0.586 1.415 0.586zM9.333 23.333c0-0.263-0.052-0.523-0.152-0.765s-0.248-0.463-0.434-0.649c-0.186-0.186-0.406-0.333-0.649-0.433s-0.503-0.152-0.765-0.152c-0.263 0-0.523 0.052-0.765 0.152s-0.463 0.248-0.649 0.433c-0.186 0.186-0.333 0.406-0.434 0.649s-0.152 0.503-0.152 0.765c0 0.53 0.211 1.039 0.586 1.414s0.884 0.586 1.414 0.586c0.53 0 1.039-0.211 1.414-0.586s0.586-0.884 0.586-1.414z"></path>
</symbol>
<symbol id="icon-Sale" viewBox="0 0 32 32">
<path d="M23.333 28c-1.238 0-2.425-0.492-3.3-1.367s-1.367-2.062-1.367-3.3c0-1.238 0.492-2.425 1.367-3.3s2.062-1.367 3.3-1.367c1.238 0 2.425 0.492 3.3 1.367s1.367 2.062 1.367 3.3c0 1.238-0.492 2.425-1.367 3.3s-2.062 1.367-3.3 1.367zM23.333 25.333c0.53 0 1.039-0.211 1.414-0.586s0.586-0.884 0.586-1.414c0-0.53-0.211-1.039-0.586-1.414s-0.884-0.586-1.414-0.586c-0.53 0-1.039 0.211-1.414 0.586s-0.586 0.884-0.586 1.414c0 0.53 0.211 1.039 0.586 1.414s0.884 0.586 1.414 0.586zM8.667 13.333c-0.613 0-1.22-0.121-1.786-0.355s-1.081-0.578-1.514-1.012c-0.433-0.433-0.777-0.948-1.012-1.514s-0.355-1.173-0.355-1.786c0-0.613 0.121-1.22 0.355-1.786s0.578-1.081 1.012-1.514c0.433-0.433 0.948-0.777 1.514-1.012s1.173-0.355 1.786-0.355c1.238 0 2.425 0.492 3.3 1.367s1.367 2.062 1.367 3.3c0 1.238-0.492 2.425-1.367 3.3s-2.062 1.367-3.3 1.367zM8.667 10.667c0.53 0 1.039-0.211 1.414-0.586s0.586-0.884 0.586-1.414c0-0.53-0.211-1.039-0.586-1.414s-0.884-0.586-1.414-0.586c-0.53 0-1.039 0.211-1.414 0.586s-0.586 0.884-0.586 1.414c0 0.53 0.211 1.039 0.586 1.414s0.884 0.586 1.414 0.586zM25.428 4.687l1.885 1.885-20.74 20.741-1.885-1.885 20.74-20.741z"></path>
</symbol>
<symbol id="icon-All" viewBox="0 0 32 32">
<path stroke-linejoin="miter" stroke-linecap="butt" stroke-miterlimit="4" stroke-width="2.6667" d="M5.333 5.333h8v8h-8v-8zM5.333 18.667h8v8h-8v-8zM18.667 5.333h8v8h-8v-8zM18.667 18.667h8v8h-8v-8z"></path>
</symbol>
<symbol id="icon-Arrow-Up" viewBox="0 0 32 32">
<path d="M16 14.437l-6.6 6.6-1.885-1.885 8.485-8.485 8.485 8.485-1.885 1.885-6.6-6.6z"></path>
</symbol>
<symbol id="icon-Arrow-Right" viewBox="0 0 32 32">
<path d="M14.437 16l6.6 6.6-1.885 1.885-8.485-8.485 8.485-8.485 1.885 1.885-6.6 6.6z"></path>
</symbol>
<symbol id="icon-Arrow-Left" viewBox="0 0 32 32">
<path d="M17.563 16l-6.6-6.6 1.885-1.885 8.485 8.485-8.485 8.485-1.885-1.885 6.6-6.6z"></path>
</symbol>
<symbol id="icon-Arrow-Down" viewBox="0 0 32 32">
<path d="M16 17.563l6.6-6.6 1.885 1.885-8.485 8.485-8.485-8.485 1.885-1.885 6.6 6.6z"></path>
</symbol>
<symbol id="icon-Filter" viewBox="0 0 32 32">
<path d="M28 5.333v2.667h-1.333l-6.667 10v11.333h-8v-11.333l-6.667-10h-1.333v-2.667h24zM8.539 8l6.128 9.192v9.475h2.667v-9.475l6.128-9.192h-14.923z"></path>
</symbol>
<symbol id="icon-Close" viewBox="0 0 32 32">
<path d="M16 14.115l6.6-6.6 1.885 1.885-6.6 6.6 6.6 6.6-1.885 1.885-6.6-6.6-6.6 6.6-1.885-1.885 6.6-6.6-6.6-6.6 1.885-1.885 6.6 6.6z"></path>
</symbol>
<symbol id="icon-Burger" viewBox="0 0 32 32">
<path d="M4 5.333h24v2.667h-24v-2.667zM4 14.667h24v2.667h-24v-2.667zM4 24h24v2.667h-24v-2.667z"></path>
</symbol>
<symbol id="icon-Search" viewBox="0 0 32 32">
<path d="M24.041 22.156l5.711 5.709-1.887 1.887-5.709-5.711c-2.124 1.703-4.767 2.629-7.489 2.625-6.624 0-12-5.376-12-12s5.376-12 12-12c6.624 0 12 5.376 12 12 0.004 2.723-0.922 5.365-2.625 7.489zM21.367 21.167c1.692-1.74 2.637-4.073 2.633-6.5 0-5.157-4.177-9.333-9.333-9.333-5.157 0-9.333 4.176-9.333 9.333 0 5.156 4.176 9.333 9.333 9.333 2.427 0.004 4.76-0.941 6.5-2.633l0.2-0.2z"></path>
</symbol>
<symbol id="icon-Cart" viewBox="0 0 32 32">
<path d="M5.333 8.552l-4.324-4.323 1.887-1.887 4.323 4.324h20.323c0.208 0 0.413 0.049 0.599 0.142s0.347 0.229 0.471 0.395c0.124 0.167 0.207 0.36 0.244 0.565s0.024 0.415-0.036 0.614l-3.2 10.667c-0.082 0.275-0.251 0.516-0.481 0.687s-0.509 0.264-0.796 0.264h-16.341v2.667h14.667v2.667h-16c-0.354 0-0.693-0.14-0.943-0.391s-0.391-0.589-0.391-0.943v-15.448zM8 9.333v8h15.349l2.4-8h-17.749zM7.333 30.667c-0.53 0-1.039-0.211-1.414-0.586s-0.586-0.884-0.586-1.414c0-0.53 0.211-1.039 0.586-1.414s0.884-0.586 1.414-0.586c0.53 0 1.039 0.211 1.414 0.586s0.586 0.884 0.586 1.414c0 0.53-0.211 1.039-0.586 1.414s-0.884 0.586-1.414 0.586zM23.333 30.667c-0.53 0-1.039-0.211-1.414-0.586s-0.586-0.884-0.586-1.414c0-0.53 0.211-1.039 0.586-1.414s0.884-0.586 1.414-0.586c0.53 0 1.039 0.211 1.414 0.586s0.586 0.884 0.586 1.414-0.211 1.039-0.586 1.414c-0.375 0.375-0.884 0.586-1.414 0.586z"></path>
</symbol>
</defs>
</svg>
